<?xml version="1.0" standalone="no"?>
<!DOCTYPE svg PUBLIC "-//W3C//DTD SVG 20010904//EN"
 "http://www.w3.org/TR/2001/REC-SVG-20010904/DTD/svg10.dtd">
<svg version="1.0" xmlns="http://www.w3.org/2000/svg"
 width="1280.000000pt" height="1188.000000pt" viewBox="0 0 1280.000000 1188.000000"
 preserveAspectRatio="xMidYMid meet">
<metadata>
Created by potrace 1.15, written by Peter Selinger 2001-2017
</metadata>
<g transform="translate(0.000000,1188.000000) scale(0.100000,-0.100000)"
fill="#000000" stroke="none">
<path d="M7117 11623 l-88 -244 16 -352 c8 -193 18 -404 21 -467 4 -63 4 -113
1 -110 -3 3 -18 193 -33 423 -16 229 -31 417 -34 417 -3 -1 -67 -146 -142
-323 -76 -177 -216 -504 -312 -727 -95 -223 -314 -731 -486 -1130 -172 -399
-382 -887 -467 -1085 -85 -198 -158 -368 -162 -378 -7 -18 -102 83 -1416 1500
-87 94 -160 171 -161 170 -2 -1 2 -448 6 -992 5 -545 9 -1099 10 -1232 l0
-242 -67 25 c-38 14 -445 165 -905 335 -1619 597 -2513 927 -2543 939 -39 14
-124 96 1240 -1205 633 -604 1185 -1132 1229 -1175 l78 -77 -108 -58 c-580
-310 -1391 -748 -1397 -754 -9 -9 -27 -3 878 -311 850 -289 835 -284 835 -290
-1 -11 -2498 -1500 -2516 -1500 -9 0 -145 -69 -300 -153 l-283 -152 47 -2 c26
-2 898 24 1937 56 1040 32 1891 57 1892 57 0 -1 11 -251 22 -556 12 -305 28
-721 36 -923 13 -319 13 -371 1 -390 -13 -19 -12 -64 10 -357 13 -184 25 -339
27 -344 2 -5 136 154 298 355 163 200 529 652 814 1004 285 352 521 640 525
640 4 0 229 -196 500 -435 271 -239 502 -443 514 -452 l23 -17 50 122 c28 67
110 266 183 442 73 176 134 321 135 323 1 2 444 -263 985 -588 540 -326 983
-590 985 -588 3 3 -49 983 -60 1126 -4 51 -2 82 4 82 5 0 851 -342 1880 -760
1029 -418 1894 -770 1923 -781 l53 -21 -26 29 c-15 15 -630 675 -1368 1467
l-1341 1438 127 87 c71 48 521 352 1002 676 481 325 868 591 860 593 -8 1 -69
15 -136 30 -106 25 -125 27 -147 15 -23 -12 -95 -3 -608 77 -1129 176 -1352
211 -1355 213 -1 2 484 489 1077 1082 594 594 1080 1080 1080 1080 0 0 -72 -5
-161 -11 -136 -10 -163 -14 -182 -32 -12 -11 -38 -22 -57 -25 -98 -16 -2157
-356 -2485 -410 -209 -35 -381 -59 -383 -55 -3 7 50 211 288 1108 43 162 117
444 165 625 48 182 127 477 175 658 48 180 84 327 81 327 -3 0 -55 -39 -115
-88 l-109 -87 -83 -240 c-45 -132 -132 -384 -192 -560 -189 -549 -451 -1312
-514 -1495 -94 -276 -110 -320 -119 -326 -19 -11 -35 -60 281 851 72 209 172
496 221 638 49 141 130 375 180 520 153 442 190 550 187 552 -2 1 -360 -272
-797 -607 -436 -335 -795 -608 -797 -606 -2 2 -33 352 -69 778 -36 426 -74
879 -85 1005 -30 337 -158 1855 -166 1960 -4 50 -10 100 -13 111 -4 15 -33
-53 -94 -223z m3463 -7508 c0 -2 -10 -9 -22 -15 -22 -11 -22 -10 -4 4 21 17
26 19 26 11z m-70 -40 c0 -2 -10 -9 -22 -15 -22 -11 -22 -10 -4 4 21 17 26 19
26 11z m-50 -30 c0 -2 -13 -11 -30 -20 -38 -19 -40 -11 -2 9 31 17 32 18 32
11z m-75 -44 c-19 -17 -568 -331 -572 -327 -4 3 566 335 577 336 2 0 0 -4 -5
-9z m-649 -376 c-36 -27 -267 -157 -272 -153 -5 6 265 166 281 167 6 0 2 -6
-9 -14z m-124 -285 c18 -11 33 -26 33 -33 0 -8 563 -574 1252 -1258 688 -684
1250 -1245 1248 -1247 -10 -10 -92 59 -185 155 -57 59 -620 624 -1250 1256
-630 631 -1142 1147 -1138 1147 4 0 22 -9 40 -20z m-4048 -852 l137 -153 -140
145 c-122 126 -152 160 -138 160 2 0 65 -69 141 -152z m1050 -805 l-96 -261
37 -84 c66 -149 74 -168 70 -168 -3 0 -44 78 -91 173 -62 123 -79 166 -62 149
l25 -23 70 163 c39 90 86 198 103 241 62 147 39 70 -56 -190z"/>
</g>
</svg>
