<?xml version="1.0" encoding="iso-8859-1"?>
<!-- Generator: Adobe Illustrator 19.0.0, SVG Export Plug-In . SVG Version: 6.00 Build 0)  -->
<svg version="1.1" id="Layer_1" xmlns="http://www.w3.org/2000/svg" xmlns:xlink="http://www.w3.org/1999/xlink" x="0px" y="0px"
	 viewBox="0 0 512 512" style="enable-background:new 0 0 512 512;" xml:space="preserve">
<g>
	<g>
		<path d="M315.733,247.467H119.467c-4.71,0-8.533,3.823-8.533,8.533v196.267c0,4.71,3.823,8.533,8.533,8.533h196.267
			c4.71,0,8.533-3.823,8.533-8.533V256C324.267,251.29,320.444,247.467,315.733,247.467z"/>
	</g>
</g>
<g>
	<g>
		<path d="M79.095,169.404l-76.8,82.21C0.819,253.201,0,255.283,0,257.451v139.588c0,7.799,9.609,11.511,14.848,5.734l76.8-84.599
			c1.425-1.57,2.219-3.618,2.219-5.734V175.232C93.867,167.492,84.386,163.746,79.095,169.404z"/>
	</g>
</g>
<g>
	<g>
		<path d="M415.804,51.2H276.599c-2.261,0-4.437,0.896-6.033,2.5l-85.333,85.333c-5.376,5.376-1.57,14.566,6.033,14.566h146.313
			c2.389,0,4.676-1.007,6.289-2.765l78.225-85.333C427.11,60.023,423.228,51.2,415.804,51.2z"/>
	</g>
</g>
<g>
	<g>
		<path d="M411.776,102.127c-18.756,21.129-50.347,55.842-59.409,65.792c-1.613,1.775-3.866,2.748-6.272,2.748H213.333
			c-4.71,0-8.533,3.823-8.533,8.533v42.667c0,4.71,3.823,8.533,8.533,8.533H332.8c4.71,0,8.533,3.823,8.533,8.533V307.2
			c0,4.71,3.823,8.533,8.533,8.533h42.667c4.71,0,8.533-3.772,8.533-8.482c0-18.321,0-60.919,0-73.387
			c0-2.236,0.853-4.318,2.44-5.905c4.881-4.881,15.795-15.795,20.702-20.702c1.596-1.596,2.458-3.729,2.458-5.99v-93.449
			C426.667,99.968,416.99,96.256,411.776,102.127z"/>
	</g>
</g>
<g>
	<g>
		<path d="M497.178,152.704l-76.8,83.78c-1.442,1.579-2.244,3.635-2.244,5.769v137.472c0,7.706,9.404,11.46,14.711,5.879l76.8-80.7
			c1.51-1.587,2.355-3.695,2.355-5.888V158.473C512,150.69,502.434,146.97,497.178,152.704z"/>
	</g>
</g>
<g>
</g>
<g>
</g>
<g>
</g>
<g>
</g>
<g>
</g>
<g>
</g>
<g>
</g>
<g>
</g>
<g>
</g>
<g>
</g>
<g>
</g>
<g>
</g>
<g>
</g>
<g>
</g>
<g>
</g>
</svg>
